<?xml version="1.0" encoding="UTF-8" standalone="no"?>
<!DOCTYPE svg PUBLIC "-//W3C//DTD SVG 1.1//EN" "http://www.w3.org/Graphics/SVG/1.1/DTD/svg11.dtd">
<svg width="100%" height="100%" viewBox="0 0 45 45" version="1.1" xmlns="http://www.w3.org/2000/svg" xmlns:xlink="http://www.w3.org/1999/xlink" xml:space="preserve" xmlns:serif="http://www.serif.com/" style="fill-rule:evenodd;clip-rule:evenodd;stroke-linejoin:round;stroke-miterlimit:2;">
    <g transform="matrix(1,0,0,1,-1,-411)">
        <g id="polyhedral_eight" transform="matrix(0.364583,0,0,0.390739,-197.147,164.595)">
            <rect x="544.567" y="632.587" width="120.686" height="112.607" style="fill:none;"/>
            <g transform="matrix(2.74286,0,0,2.55926,691.966,-665.602)">
                <g transform="matrix(1,0,0,0.903016,-211.536,296.885)">
                    <path d="M178.029,237.584C178.448,236.971 179.102,236.61 179.797,236.61C180.491,236.61 181.145,236.971 181.564,237.584C184.747,242.251 191.356,251.937 193.952,255.741C194.591,256.678 194.591,257.971 193.952,258.907C191.356,262.712 184.747,272.398 181.564,277.064C181.145,277.678 180.491,278.038 179.797,278.038C179.102,278.038 178.448,277.678 178.029,277.064C174.846,272.398 168.237,262.712 165.641,258.907C165.002,257.971 165.002,256.678 165.641,255.741C168.237,251.937 174.846,242.251 178.029,237.584Z" style="fill:rgb(101,142,70);"/>
                </g>
                <g transform="matrix(0.710147,0,0,0.658454,-52.6903,356.283)">
                    <path d="M27.74,237.479C28.127,236.705 28.877,236.222 29.693,236.222C30.509,236.222 31.259,236.705 31.646,237.479C35.118,244.423 42.312,258.812 45.644,265.476C46.015,266.217 45.997,267.115 45.596,267.838C45.196,268.562 44.472,269.005 43.691,269.005C36.886,269.005 22.5,269.005 15.695,269.005C14.913,269.005 14.19,268.562 13.789,267.838C13.389,267.115 13.371,266.217 13.741,265.476C17.073,258.812 24.268,244.423 27.74,237.479Z" style="fill:rgb(69,118,32);"/>
                </g>
            </g>
        </g>
    </g>
</svg>
