<?xml version="1.0" encoding="UTF-8" standalone="no"?>
<!DOCTYPE svg PUBLIC "-//W3C//DTD SVG 1.1//EN" "http://www.w3.org/Graphics/SVG/1.1/DTD/svg11.dtd">
<svg width="100%" height="100%" viewBox="0 0 45 45" version="1.1" xmlns="http://www.w3.org/2000/svg" xmlns:xlink="http://www.w3.org/1999/xlink" xml:space="preserve" xmlns:serif="http://www.serif.com/" style="fill-rule:evenodd;clip-rule:evenodd;stroke-linejoin:round;stroke-miterlimit:2;">
    <g transform="matrix(1,0,0,1,-4,-630)">
        <g id="polyhedral_twelve" transform="matrix(0.364583,0,0,0.390739,-193.626,383.279)">
            <rect x="544.567" y="632.587" width="120.686" height="112.607" style="fill:none;"/>
            <g transform="matrix(2.74286,0,0,2.55926,687.187,-978.579)">
                <g transform="matrix(1.26936,0,0,1.26936,-357.31,325.02)">
                    <path d="M256.699,241.549C257.415,241.135 258.298,241.135 259.015,241.549C261.676,243.085 268.202,246.853 270.863,248.389C271.58,248.803 272.021,249.568 272.021,250.395L272.021,264.077C272.021,264.904 271.58,265.669 270.863,266.082C268.202,267.619 261.676,271.387 259.015,272.923C258.298,273.337 257.415,273.337 256.699,272.923C254.037,271.387 247.511,267.619 244.85,266.082C244.134,265.669 243.692,264.904 243.692,264.077L243.692,250.395C243.692,249.568 244.134,248.803 244.85,248.389C247.511,246.853 254.037,243.085 256.699,241.549Z" style="fill:rgb(135,186,223);"/>
                </g>
                <g transform="matrix(1.02459,0,0,1.02459,-294.53,387.392)">
                    <path d="M256.471,241.887C257.297,241.287 258.416,241.287 259.243,241.887C262.195,244.032 269.074,249.03 272.026,251.175C272.852,251.775 273.198,252.839 272.883,253.811C271.755,257.281 269.127,265.368 268,268.839C267.684,269.81 266.779,270.468 265.757,270.468L249.956,270.468C248.935,270.468 248.029,269.81 247.714,268.839C246.586,265.368 243.958,257.281 242.831,253.811C242.515,252.839 242.861,251.775 243.687,251.175C246.639,249.03 253.519,244.032 256.471,241.887Z" style="fill:rgb(95,149,189);"/>
                </g>
            </g>
        </g>
    </g>
</svg>
