<?xml version="1.0" encoding="UTF-8" standalone="no"?><!DOCTYPE svg PUBLIC "-//W3C//DTD SVG 1.1//EN" "http://www.w3.org/Graphics/SVG/1.1/DTD/svg11.dtd"><svg width="100%" height="100%" viewBox="0 0 11 11" version="1.1" xmlns="http://www.w3.org/2000/svg" xmlns:xlink="http://www.w3.org/1999/xlink" xml:space="preserve" xmlns:serif="http://www.serif.com/" style="fill-rule:evenodd;clip-rule:evenodd;stroke-linejoin:round;stroke-miterlimit:2;"><rect id="polyhedral_eight" x="0.094" y="0.141" width="10.56" height="10.56" style="fill:none;"/><g><path d="M4.95,1.143c0.101,-0.133 0.258,-0.211 0.424,-0.211c0.167,-0 0.324,0.078 0.425,0.211c0.764,1.011 2.35,3.11 2.973,3.935c0.153,0.203 0.153,0.483 -0,0.686c-0.623,0.825 -2.209,2.924 -2.973,3.935c-0.101,0.133 -0.258,0.211 -0.425,0.211c-0.166,0 -0.323,-0.078 -0.424,-0.211c-0.764,-1.011 -2.35,-3.11 -2.973,-3.935c-0.153,-0.203 -0.153,-0.483 0,-0.686c0.623,-0.825 2.209,-2.924 2.973,-3.935Z" style="fill:#658e46;"/><path d="M5.074,1.437c0.066,-0.123 0.194,-0.199 0.333,-0.199c0.139,0 0.267,0.076 0.333,0.199c0.592,1.097 1.818,3.371 2.386,4.424c0.063,0.117 0.06,0.259 -0.009,0.373c-0.068,0.115 -0.191,0.185 -0.324,0.185l-4.772,-0c-0.133,-0 -0.256,-0.07 -0.325,-0.185c-0.068,-0.114 -0.071,-0.256 -0.008,-0.373c0.568,-1.053 1.794,-3.327 2.386,-4.424Z" style="fill:#457620;"/></g></svg>