<?xml version="1.0" encoding="UTF-8" standalone="no"?>
<!DOCTYPE svg PUBLIC "-//W3C//DTD SVG 1.1//EN" "http://www.w3.org/Graphics/SVG/1.1/DTD/svg11.dtd">
<svg width="100%" height="100%" viewBox="0 0 45 45" version="1.1" xmlns="http://www.w3.org/2000/svg" xmlns:xlink="http://www.w3.org/1999/xlink" xml:space="preserve" xmlns:serif="http://www.serif.com/" style="fill-rule:evenodd;clip-rule:evenodd;stroke-linejoin:round;stroke-miterlimit:2;">
    <g transform="matrix(1,0,0,1,-10,-1038)">
        <g id="polyhedral_thirty" transform="matrix(0.364583,0,0,0.390739,-187.757,791.308)">
            <rect x="544.567" y="632.587" width="120.686" height="112.607" style="fill:none;"/>
            <g transform="matrix(2.74286,0,0,2.55926,689.068,-1631.07)">
                <g transform="matrix(1.04911,1.2326e-32,-1.2326e-32,1.04911,-403.616,632.537)">
                    <path d="M354.98,242.33C355.307,242.265 355.645,242.265 355.973,242.33C357.295,242.593 360.891,243.308 362.214,243.571C362.542,243.637 362.853,243.766 363.131,243.951C364.252,244.7 367.301,246.738 368.422,247.487C368.7,247.672 368.939,247.911 369.124,248.189C369.873,249.31 371.911,252.359 372.66,253.48C372.845,253.758 372.975,254.069 373.04,254.397C373.303,255.72 374.018,259.316 374.281,260.638C374.346,260.966 374.346,261.304 374.281,261.631C374.018,262.954 373.303,266.55 373.04,267.873C372.975,268.2 372.845,268.512 372.66,268.79C371.911,269.911 369.873,272.96 369.124,274.081C368.939,274.359 368.7,274.597 368.422,274.783C367.301,275.532 364.252,277.569 363.131,278.318C362.853,278.504 362.542,278.633 362.214,278.698C360.891,278.961 357.295,279.677 355.973,279.94C355.645,280.005 355.307,280.005 354.98,279.94C353.657,279.677 350.061,278.961 348.739,278.698C348.411,278.633 348.099,278.504 347.821,278.318C346.7,277.569 343.651,275.532 342.53,274.783C342.252,274.597 342.014,274.359 341.828,274.081C341.079,272.96 339.042,269.911 338.293,268.79C338.107,268.512 337.978,268.2 337.913,267.873C337.65,266.55 336.934,262.954 336.671,261.631C336.606,261.304 336.606,260.966 336.671,260.638C336.934,259.316 337.65,255.72 337.913,254.397C337.978,254.069 338.107,253.758 338.293,253.48C339.042,252.359 341.079,249.31 341.828,248.189C342.014,247.911 342.252,247.672 342.53,247.487C343.651,246.738 346.7,244.7 347.821,243.951C348.099,243.766 348.411,243.637 348.739,243.571C350.061,243.308 353.657,242.593 354.98,242.33Z" style="fill:rgb(171,125,175);"/>
                </g>
                <g transform="matrix(4.6941e-17,0.766605,-0.766605,4.6941e-17,166.584,768.664)">
                    <path d="M177.41,238.492C177.948,237.703 178.842,237.232 179.797,237.232C180.752,237.232 181.645,237.703 182.183,238.492C185.49,243.339 191.34,251.913 193.843,255.581C194.56,256.633 194.56,258.016 193.843,259.068C191.34,262.736 185.49,271.31 182.183,276.157C181.645,276.945 180.752,277.417 179.797,277.417C178.842,277.417 177.948,276.945 177.41,276.157C174.103,271.31 168.253,262.736 165.75,259.068C165.033,258.016 165.033,256.633 165.75,255.581C168.253,251.913 174.103,243.339 177.41,238.492Z" style="fill:rgb(160,91,166);"/>
                </g>
            </g>
        </g>
    </g>
</svg>
