<?xml version="1.0" encoding="UTF-8" standalone="no"?>
<!DOCTYPE svg PUBLIC "-//W3C//DTD SVG 1.1//EN" "http://www.w3.org/Graphics/SVG/1.1/DTD/svg11.dtd">
<svg width="100%" height="100%" viewBox="0 0 45 45" version="1.1" xmlns="http://www.w3.org/2000/svg" xmlns:xlink="http://www.w3.org/1999/xlink" xml:space="preserve" xmlns:serif="http://www.serif.com/" style="fill-rule:evenodd;clip-rule:evenodd;stroke-linejoin:round;stroke-miterlimit:2;">
    <g transform="matrix(1,0,0,1,-3,-326)">
        <g id="polyhedral_seven" transform="matrix(0.364583,0,0,0.390739,-194.985,79.7338)">
            <rect x="544.567" y="632.587" width="120.686" height="112.607" style="fill:none;"/>
            <g transform="matrix(2.74286,0,0,2.55926,718.555,-551.114)">
                <g transform="matrix(1.522,0,0,0.992457,-280.569,226.123)">
                    <path d="M152.777,245.568C153.778,243.326 155.437,241.99 157.209,241.999C158.98,242.008 160.633,243.361 161.624,245.613C164.493,252.129 168.062,260.235 170.055,264.763C170.451,265.662 170.585,266.773 170.427,267.83C170.268,268.887 169.83,269.796 169.218,270.339C166.721,272.554 162.782,276.05 160.081,278.446C158.248,280.072 155.99,280.072 154.158,278.446C151.462,276.055 147.533,272.569 145.036,270.353C144.421,269.808 143.982,268.894 143.825,267.831C143.668,266.769 143.807,265.654 144.208,264.756C146.236,260.216 149.865,252.088 152.777,245.568Z" style="fill:rgb(189,138,138);"/>
                </g>
                <g transform="matrix(0.627047,0,0,0.627047,-92.2959,328.04)">
                    <circle cx="81.115" cy="251.142" r="17.785" style="fill:rgb(160,89,89);"/>
                </g>
            </g>
        </g>
    </g>
</svg>
