<?xml version="1.0" encoding="UTF-8" standalone="no"?><!DOCTYPE svg PUBLIC "-//W3C//DTD SVG 1.1//EN" "http://www.w3.org/Graphics/SVG/1.1/DTD/svg11.dtd"><svg width="100%" height="100%" viewBox="0 0 11 11" version="1.1" xmlns="http://www.w3.org/2000/svg" xmlns:xlink="http://www.w3.org/1999/xlink" xml:space="preserve" xmlns:serif="http://www.serif.com/" style="fill-rule:evenodd;clip-rule:evenodd;stroke-linejoin:round;stroke-miterlimit:2;"><rect id="polyhedral_sixteen" x="0.22" y="0.049" width="10.56" height="10.56" style="fill:none;"/><g><path d="M5.297,0.858c0.132,-0.043 0.274,-0.043 0.406,0c0.495,0.161 1.764,0.574 2.26,0.735c0.132,0.042 0.247,0.126 0.329,0.238c0.306,0.422 1.091,1.502 1.397,1.923c0.082,0.113 0.125,0.248 0.125,0.386l0,2.378c0,0.138 -0.043,0.273 -0.125,0.386c-0.306,0.421 -1.091,1.501 -1.397,1.923c-0.082,0.112 -0.197,0.196 -0.329,0.238c-0.496,0.161 -1.765,0.574 -2.26,0.735c-0.132,0.043 -0.274,0.043 -0.406,-0c-0.496,-0.161 -1.765,-0.574 -2.261,-0.735c-0.132,-0.042 -0.247,-0.126 -0.329,-0.238c-0.306,-0.422 -1.09,-1.502 -1.397,-1.923c-0.081,-0.113 -0.125,-0.248 -0.125,-0.386l-0,-2.378c-0,-0.138 0.044,-0.273 0.125,-0.386c0.307,-0.421 1.091,-1.501 1.397,-1.923c0.082,-0.112 0.197,-0.196 0.329,-0.238c0.496,-0.161 1.765,-0.574 2.261,-0.735Z" style="fill:#656fac;"/><path d="M5.255,1.598c0.148,-0.086 0.331,-0.086 0.48,0c0.459,0.265 1.457,0.841 1.917,1.107c0.148,0.085 0.24,0.244 0.24,0.415l-0,2.214c-0,0.171 -0.092,0.33 -0.24,0.415c-0.46,0.266 -1.458,0.842 -1.917,1.107c-0.149,0.086 -0.332,0.086 -0.48,-0c-0.459,-0.265 -1.458,-0.841 -1.917,-1.107c-0.148,-0.085 -0.24,-0.244 -0.24,-0.415l0,-2.214c0,-0.171 0.092,-0.33 0.24,-0.415c0.459,-0.266 1.458,-0.842 1.917,-1.107Z" style="fill:#4150a6;"/></g></svg>