<?xml version="1.0" encoding="UTF-8" standalone="no"?>
<!DOCTYPE svg PUBLIC "-//W3C//DTD SVG 1.1//EN" "http://www.w3.org/Graphics/SVG/1.1/DTD/svg11.dtd">
<svg width="100%" height="100%" viewBox="0 0 45 45" version="1.1" xmlns="http://www.w3.org/2000/svg" xmlns:xlink="http://www.w3.org/1999/xlink" xml:space="preserve" xmlns:serif="http://www.serif.com/" style="fill-rule:evenodd;clip-rule:evenodd;stroke-linejoin:round;stroke-miterlimit:2;">
    <g transform="matrix(1,0,0,1,-5,-798)">
        <g id="polyhedral_sixteen" transform="matrix(0.364583,0,0,0.390739,-192.625,551.211)">
            <rect x="544.567" y="632.587" width="120.686" height="112.607" style="fill:none;"/>
            <g transform="matrix(2.74286,0,0,2.55926,689.55,-1223.45)">
                <g transform="matrix(1,0,0,1,-386.335,486.089)">
                    <path d="M354.631,242.506C355.18,242.327 355.772,242.327 356.322,242.506C358.388,243.177 363.676,244.895 365.742,245.567C366.292,245.745 366.77,246.093 367.11,246.561C368.387,248.318 371.655,252.816 372.932,254.574C373.272,255.042 373.455,255.605 373.455,256.182L373.455,266.087C373.455,266.665 373.272,267.228 372.932,267.696C371.655,269.453 368.387,273.951 367.11,275.709C366.77,276.177 366.292,276.525 365.742,276.703C363.676,277.374 358.388,279.092 356.322,279.764C355.772,279.942 355.18,279.942 354.631,279.764C352.564,279.092 347.277,277.374 345.21,276.703C344.661,276.525 344.182,276.177 343.842,275.709C342.565,273.951 339.297,269.453 338.02,267.696C337.681,267.228 337.498,266.665 337.498,266.087L337.498,256.182C337.498,255.605 337.681,255.042 338.02,254.574C339.297,252.816 342.565,248.318 343.842,246.561C344.182,246.093 344.661,245.745 345.21,245.567C347.277,244.895 352.564,243.177 354.631,242.506Z" style="fill:rgb(101,111,172);"/>
                </g>
                <g transform="matrix(0.706247,0,0,0.706247,-309.861,625.853)">
                    <path d="M393.633,148.426C394.509,147.92 395.589,147.92 396.466,148.426C399.841,150.375 408.33,155.276 411.706,157.225C412.582,157.731 413.122,158.666 413.122,159.678L413.122,177.275C413.122,178.287 412.582,179.223 411.706,179.729C408.33,181.678 399.841,186.579 396.466,188.527C395.589,189.033 394.509,189.033 393.633,188.527C390.257,186.579 381.768,181.678 378.393,179.729C377.516,179.223 376.976,178.287 376.976,177.275L376.976,159.678C376.976,158.666 377.516,157.731 378.393,157.225C381.768,155.276 390.257,150.375 393.633,148.426Z" style="fill:rgb(65,80,166);"/>
                </g>
            </g>
        </g>
    </g>
</svg>
