<?xml version="1.0" encoding="UTF-8" standalone="no"?>
<!DOCTYPE svg PUBLIC "-//W3C//DTD SVG 1.1//EN" "http://www.w3.org/Graphics/SVG/1.1/DTD/svg11.dtd">
<svg width="100%" height="100%" viewBox="0 0 45 45" version="1.1" xmlns="http://www.w3.org/2000/svg" xmlns:xlink="http://www.w3.org/1999/xlink" xml:space="preserve" xmlns:serif="http://www.serif.com/" style="fill-rule:evenodd;clip-rule:evenodd;stroke-linejoin:round;stroke-miterlimit:2;">
    <g transform="matrix(1,0,0,1,0,-85)">
        <g id="polyhedral_four" transform="matrix(0.364583,0,0,0.390739,-197.84,-162.113)">
            <rect x="544.567" y="632.587" width="120.686" height="112.607" style="fill:none;"/>
            <g transform="matrix(2.74541,0,0,2.56164,714.29,-127.593)">
                <g transform="matrix(1.21456,0,0,1.02977,-75.9047,55.9674)">
                    <path d="M28.576,235.806C28.809,235.34 29.234,235.054 29.693,235.054C30.152,235.054 30.576,235.34 30.809,235.806C33.984,242.155 43.038,260.263 46.256,266.7C46.492,267.172 46.496,267.758 46.265,268.234C46.034,268.711 45.605,269.005 45.139,269.005C38.747,269.005 20.639,269.005 14.246,269.005C13.781,269.005 13.351,268.711 13.121,268.234C12.89,267.758 12.893,267.172 13.13,266.7C16.348,260.263 25.402,242.155 28.576,235.806Z" style="fill:rgb(227,197,50);"/>
                </g>
                <g transform="matrix(0.773626,0,0,0.655926,-62.8122,152.853)">
                    <path d="M28.787,235.386C28.976,235.007 29.32,234.775 29.693,234.775C30.065,234.775 30.41,235.007 30.599,235.386C33.631,241.449 43.398,260.985 46.473,267.134C46.665,267.517 46.668,267.993 46.48,268.379C46.293,268.766 45.944,269.005 45.567,269.005C39.461,269.005 19.925,269.005 13.819,269.005C13.441,269.005 13.093,268.766 12.905,268.379C12.718,267.993 12.721,267.517 12.913,267.134C15.987,260.985 25.755,241.449 28.787,235.386Z" style="fill:rgb(204,175,37);"/>
                </g>
            </g>
        </g>
    </g>
</svg>
