<?xml version="1.0" encoding="UTF-8" standalone="no"?><!DOCTYPE svg PUBLIC "-//W3C//DTD SVG 1.1//EN" "http://www.w3.org/Graphics/SVG/1.1/DTD/svg11.dtd"><svg width="100%" height="100%" viewBox="0 0 11 11" version="1.1" xmlns="http://www.w3.org/2000/svg" xmlns:xlink="http://www.w3.org/1999/xlink" xml:space="preserve" xmlns:serif="http://www.serif.com/" style="fill-rule:evenodd;clip-rule:evenodd;stroke-linejoin:round;stroke-miterlimit:2;"><rect id="polyhedral_seven" x="0.133" y="0.174" width="10.56" height="10.56" style="fill:none;"/><g><path d="M3.827,1.931c0.366,-0.534 0.972,-0.852 1.619,-0.85c0.647,0.003 1.251,0.325 1.613,0.861c1.048,1.552 2.351,3.483 3.079,4.561c0.145,0.215 0.194,0.479 0.136,0.731c-0.058,0.252 -0.218,0.468 -0.441,0.598c-0.912,0.527 -2.351,1.36 -3.338,1.931c-0.669,0.387 -1.494,0.387 -2.164,-0c-0.984,-0.57 -2.419,-1.4 -3.332,-1.928c-0.224,-0.13 -0.384,-0.348 -0.442,-0.601c-0.057,-0.253 -0.006,-0.518 0.14,-0.732c0.741,-1.082 2.066,-3.017 3.13,-4.571Z" style="fill:#bd8a8a;"/><circle cx="5.413" cy="5.694" r="2.676" style="fill:#a05959;"/></g></svg>