<?xml version="1.0" encoding="UTF-8" standalone="no"?><!DOCTYPE svg PUBLIC "-//W3C//DTD SVG 1.1//EN" "http://www.w3.org/Graphics/SVG/1.1/DTD/svg11.dtd"><svg width="100%" height="100%" viewBox="0 0 11 11" version="1.1" xmlns="http://www.w3.org/2000/svg" xmlns:xlink="http://www.w3.org/1999/xlink" xml:space="preserve" xmlns:serif="http://www.serif.com/" style="fill-rule:evenodd;clip-rule:evenodd;stroke-linejoin:round;stroke-miterlimit:2;"><rect id="polyhedral_four" x="0.168" y="0.211" width="10.56" height="10.56" style="fill:none;"/><g><path d="M5.122,1.661c0.068,-0.115 0.192,-0.186 0.326,-0.186c0.134,0 0.258,0.071 0.326,0.186c0.926,1.571 3.568,6.05 4.507,7.642c0.069,0.117 0.07,0.262 0.002,0.38c-0.067,0.118 -0.192,0.191 -0.328,0.191c-1.865,-0 -7.148,-0 -9.014,-0c-0.135,-0 -0.261,-0.073 -0.328,-0.191c-0.067,-0.118 -0.066,-0.263 0.003,-0.38c0.939,-1.592 3.58,-6.071 4.506,-7.642Z" style="fill:#e3c532;"/><path d="M5.28,3.692c0.035,-0.06 0.099,-0.096 0.168,-0.096c0.069,-0 0.133,0.036 0.169,0.096c0.563,0.955 2.378,4.034 2.95,5.003c0.035,0.06 0.036,0.135 0.001,0.196c-0.035,0.061 -0.1,0.098 -0.17,0.098c-1.135,0 -4.765,0 -5.9,0c-0.07,0 -0.135,-0.037 -0.17,-0.098c-0.035,-0.061 -0.034,-0.136 0.002,-0.196c0.571,-0.969 2.386,-4.048 2.95,-5.003Z" style="fill:#ccaf25;"/></g></svg>