<?xml version="1.0" encoding="UTF-8" standalone="no"?>
<!DOCTYPE svg PUBLIC "-//W3C//DTD SVG 1.1//EN" "http://www.w3.org/Graphics/SVG/1.1/DTD/svg11.dtd">
<svg width="100%" height="100%" viewBox="0 0 45 45" version="1.1" xmlns="http://www.w3.org/2000/svg" xmlns:xlink="http://www.w3.org/1999/xlink" xml:space="preserve" xmlns:serif="http://www.serif.com/" style="fill-rule:evenodd;clip-rule:evenodd;stroke-linejoin:round;stroke-miterlimit:2;">
    <g transform="matrix(1,0,0,1,0,-161)">
        <g id="polyhedral_five" transform="matrix(0.364583,0,0,0.390739,-197.988,-85.816)">
            <rect x="544.567" y="632.587" width="120.686" height="112.607" style="fill:none;"/>
            <g transform="matrix(2.74286,0,0,2.55926,705.371,-258.779)">
                <g transform="matrix(1.53576,0,0,1.17023,-82.2271,72.0949)">
                    <path d="M24.307,244.345C25.461,242.036 27.499,240.631 29.693,240.631C31.887,240.631 33.924,242.036 35.079,244.345C37.083,248.354 39.37,252.927 41.425,257.037C42.634,259.455 42.69,262.495 41.572,264.98C40.454,267.465 38.336,269.005 36.038,269.005L23.347,269.005C21.049,269.005 18.932,267.465 17.814,264.98C16.695,262.495 16.752,259.455 17.961,257.037C20.016,252.927 22.302,248.354 24.307,244.345Z" style="fill:rgb(220,152,106);"/>
                </g>
                <g transform="matrix(0.622732,0,0,0.622732,-87.139,215.251)">
                    <circle cx="81.115" cy="251.142" r="17.785" style="fill:rgb(191,127,85);"/>
                </g>
            </g>
        </g>
    </g>
</svg>
