<?xml version="1.0" encoding="UTF-8" standalone="no"?>
<!DOCTYPE svg PUBLIC "-//W3C//DTD SVG 1.1//EN" "http://www.w3.org/Graphics/SVG/1.1/DTD/svg11.dtd">
<svg width="100%" height="100%" viewBox="0 0 45 45" version="1.1" xmlns="http://www.w3.org/2000/svg" xmlns:xlink="http://www.w3.org/1999/xlink" xml:space="preserve" xmlns:serif="http://www.serif.com/" style="fill-rule:evenodd;clip-rule:evenodd;stroke-linejoin:round;stroke-miterlimit:2;">
    <g transform="matrix(1,0,0,1,-3,-515)">
        <g id="polyhedral_ten" transform="matrix(0.364583,0,0,0.390739,-194.574,268.466)">
            <rect x="544.567" y="632.587" width="120.686" height="112.607" style="fill:none;"/>
            <g transform="matrix(2.74286,0,0,2.55926,712.604,-833.736)">
                <g transform="matrix(1.27989,0,0,1.27989,-242.136,321.031)">
                    <path d="M157.807,199.219C158.241,198.969 158.775,198.969 159.209,199.219C161.515,200.551 168.858,204.79 171.165,206.122C171.598,206.372 171.865,206.835 171.865,207.336L171.865,221.141C171.865,221.642 171.598,222.105 171.165,222.355C168.858,223.687 161.515,227.926 159.209,229.258C158.775,229.508 158.241,229.508 157.807,229.258C155.5,227.926 148.158,223.687 145.851,222.355C145.418,222.105 145.151,221.642 145.151,221.141L145.151,207.336C145.151,206.835 145.418,206.372 145.851,206.122C148.158,204.79 155.5,200.551 157.807,199.219Z" style="fill:rgb(105,197,197);"/>
                </g>
                <g transform="matrix(1.07425,0,0,0.761446,-208.089,400.067)">
                    <path d="M154.077,237.973C154.694,236.34 155.899,235.322 157.21,235.327C158.522,235.333 159.723,236.361 160.332,237.999C163.137,245.537 167.18,256.4 169.579,262.847C170.076,264.183 170.128,265.762 169.721,267.157C169.314,268.553 168.49,269.623 167.47,270.079C164.972,271.196 161.863,272.586 159.726,273.542C158.088,274.274 156.331,274.278 154.692,273.555C152.525,272.598 149.355,271.198 146.812,270.075C145.786,269.622 144.956,268.547 144.547,267.143C144.139,265.739 144.196,264.151 144.702,262.812C147.14,256.353 151.237,245.498 154.077,237.973Z" style="fill:rgb(74,159,159);"/>
                </g>
            </g>
        </g>
    </g>
</svg>
